<?xml version="1.0"?>

<svg version="1.1" id="Ebene_1" xmlns="http://www.w3.org/2000/svg" xmlns:xlink="http://www.w3.org/1999/xlink" x="0px" y="0px" viewBox="0 0 841.89 595.28" style="enable-background:new 0 0 841.89 595.28;" xml:space="preserve">

<g>
&#x9;<path class="st0" d="M504.12,178.42h-12.84l-0.46,6.63h12.84l-0.12,1.75h-25.97l0.12-1.75h11.55l0.46-6.63h-11.55l0.12-1.78h25.97&#xA;&#x9;&#x9;L504.12,178.42z"></path>
&#x9;<path class="st0" d="M504.66,163.26c-0.24,0.26-0.39,0.37-0.96,0.51c0.37,0.51,1.32,1.68,1.19,3.53c-0.18,2.55-2.31,3.57-4.59,3.57&#xA;&#x9;&#x9;c-1.43,0-2.33-0.36-2.86-0.66c-1.88-1.06-2.47-3.06-3.34-4.81c-0.35-0.73-0.48-0.98-0.95-1.6h-2.1c-0.96,0-2.06-0.04-2.75,0.87&#xA;&#x9;&#x9;c-0.36,0.44-0.4,0.91-0.43,1.46c-0.09,1.35,0.46,1.82,1.03,2.08c0.85,0.4,2.15,0.36,3.1,0.33l-0.11,1.57c-2.02,0-2.83,0-3.76-0.44&#xA;&#x9;&#x9;c-2-0.91-1.8-3.17-1.76-3.75c0.05-0.76,0.25-1.46,0.67-2.15c0.91-1.42,2.21-1.57,3.68-1.57h12.43c0.67-0.07,0.67-0.58,0.7-1.09&#xA;&#x9;&#x9;h1.47C505.25,162.28,505.1,162.83,504.66,163.26z M494.88,163.77c0.27,0.36,0.5,0.76,0.69,1.17c0.32,0.62,0.58,1.24,0.87,1.82&#xA;&#x9;&#x9;c0.91,1.67,1.99,2.55,4.01,2.55c0.59,0,2.84-0.11,3-2.4c0.1-1.42-0.61-2.26-1.51-3.13h-7.06V163.77z"></path>
&#x9;<path class="st0" d="M506.17,149.02h-14.83c-0.15,0.04-0.67,0.04-1.15,0.18c-0.49,0.18-1.49,0.73-1.54,2.07&#xA;&#x9;&#x9;c-0.07,1.06,0.41,2,1.22,2.59c0.25,0.18,0.39,0.25,0.89,0.47h15.05l-0.11,1.53h-18.5l0.11-1.53h1.77&#xA;&#x9;&#x9;c-0.46-0.29-0.66-0.51-0.83-0.69c-0.92-0.98-0.95-2.18-0.92-2.69c0.14-1.49,0.97-2.84,2.58-3.28c0.52-0.14,1.01-0.18,1.52-0.18&#xA;&#x9;&#x9;h14.86L506.17,149.02z"></path>
&#x9;<path class="st0" d="M507.16,134.84h-1.95c0.32,0.14,0.56,0.36,0.81,0.58c0.42,0.36,1.17,1.2,1.06,2.77&#xA;&#x9;&#x9;c-0.03,0.47-0.25,1.97-1.64,2.88c-1.04,0.69-2.19,0.76-3.29,0.76h-9.31c-0.51,0-2.8,0.11-3.9-1.6c-0.24-0.33-0.59-1.02-0.52-2.08&#xA;&#x9;&#x9;c0.14-1.97,1.41-2.8,1.96-3.24h-9.2l0.11-1.53h25.97L507.16,134.84z M493.4,134.91c-0.34,0.07-2.11,0.22-3.01,1.49&#xA;&#x9;&#x9;c-0.29,0.44-0.43,0.87-0.47,1.38c-0.08,1.17,0.67,2.04,1.71,2.37c0.43,0.15,0.91,0.15,1.35,0.15h8.98c1.14,0,2.21-0.04,3.08-0.95&#xA;&#x9;&#x9;c0.4-0.44,0.62-0.98,0.66-1.57c0.11-1.57-1.1-2.62-2.48-2.88h-9.82V134.91z"></path>
&#x9;<path class="st0" d="M506.72,120.12c1.43,1.13,1.31,2.84,1.27,3.42c-0.04,0.51-0.15,1.09-0.33,1.57c-0.18,0.47-0.9,1.79-2.41,2.29&#xA;&#x9;&#x9;c-0.57,0.22-1.01,0.29-2.08,0.29h-9.71c-0.29,0-0.96,0-1.71-0.22c-1.04-0.33-2.6-1.24-2.41-3.93c0.14-1.97,1.09-2.99,1.86-3.5&#xA;&#x9;&#x9;c1.23-0.76,2.88-0.73,4.24-0.73h3.72l-0.48,6.84h4.56c0.15,0,0.77,0,1.33-0.14c0.75-0.22,1.86-0.76,1.98-2.59&#xA;&#x9;&#x9;c0.02-0.22,0.05-1.17-0.53-1.82c-0.1-0.11-0.34-0.36-0.77-0.51c-0.79-0.29-1.75-0.25-3.55-0.25l0.11-1.53h2.1&#xA;&#x9;&#x9;C505.01,119.32,505.85,119.43,506.72,120.12z M494.34,120.88c-1.62,0-2.46,0.4-2.98,1.02c-0.2,0.25-0.57,0.8-0.63,1.6&#xA;&#x9;&#x9;c-0.02,0.25-0.03,0.98,0.4,1.6c0.7,0.98,1.84,1.06,2.98,1.06h3.24l0.37-5.28C497.72,120.88,494.34,120.88,494.34,120.88z"></path>
&#x9;<path class="st0" d="M508.64,113.72h-25.97l0.11-1.53h25.97L508.64,113.72z"></path>
&#x9;<path class="st0" d="M509.17,100.29c0.16,0.4,0.4,1.09,0.33,2.18c-0.06,0.91-0.31,1.86-0.85,2.66c-0.08,0.11-0.4,0.51-0.72,0.8&#xA;&#x9;&#x9;c-0.15,0.11-0.31,0.22-0.65,0.36c-0.76,0.36-1.47,0.55-3.09,0.55h-1.58l0.11-1.53h1.07c0.88,0,2.13,0.04,3.01-0.51&#xA;&#x9;&#x9;c0.42-0.25,0.63-0.58,0.71-0.73c0.42-0.69,0.46-1.31,0.48-1.6c0.02-0.22,0.09-0.76-0.13-1.31c-0.4-1.13-1.71-1.38-2.77-1.38&#xA;&#x9;&#x9;c-2.1,0-2.82,0.91-4.18,2.4c-1.12,1.27-2.03,2.15-2.54,2.62c-0.62,0.51-1.79,1.35-3.81,1.35c-1.4,0-3.95-0.29-3.7-3.86&#xA;&#x9;&#x9;c0.27-3.9,3.43-3.82,4.72-3.82h1.25l-0.11,1.57h-1.32c-1.07,0-2.33,0.11-2.85,1.27c-0.17,0.4-0.21,0.91-0.22,1.02&#xA;&#x9;&#x9;c-0.11,1.53,0.58,2.26,2.2,2.26c1.07,0,1.7-0.07,2.55-0.76c0.54-0.4,1.57-1.42,2.77-2.73c0.48-0.55,0.96-1.09,1.51-1.6&#xA;&#x9;&#x9;c0.63-0.55,1.82-1.27,3.84-1.27C507.74,98.22,508.73,99.24,509.17,100.29z"></path>
&#x9;<path class="st0" d="M530.03,182.24c-0.21,0.23-0.35,0.33-0.86,0.46c0.33,0.46,1.18,1.5,1.07,3.17c-0.16,2.28-2.07,3.2-4.11,3.2&#xA;&#x9;&#x9;c-1.29,0-2.09-0.33-2.56-0.59c-1.68-0.95-2.22-2.74-3-4.31c-0.32-0.65-0.43-0.88-0.86-1.44h-1.88c-0.86,0-1.84-0.03-2.46,0.78&#xA;&#x9;&#x9;c-0.32,0.39-0.35,0.82-0.39,1.3c-0.08,1.21,0.41,1.63,0.92,1.86c0.77,0.36,1.92,0.33,2.78,0.29l-0.1,1.4c-1.81,0-2.54,0-3.37-0.39&#xA;&#x9;&#x9;c-1.79-0.82-1.62-2.84-1.58-3.36c0.05-0.68,0.22-1.31,0.59-1.93c0.82-1.27,1.98-1.4,3.3-1.4h11.14c0.6-0.07,0.6-0.52,0.63-0.98&#xA;&#x9;&#x9;h1.32C530.55,181.36,530.42,181.85,530.03,182.24z M521.25,182.7c0.24,0.33,0.45,0.69,0.62,1.04c0.29,0.56,0.52,1.11,0.78,1.63&#xA;&#x9;&#x9;c0.82,1.5,1.79,2.28,3.6,2.28c0.53,0,2.55-0.1,2.69-2.15c0.09-1.27-0.55-2.02-1.35-2.81L521.25,182.7L521.25,182.7z"></path>
&#x9;<path class="st0" d="M531.33,170.27l-8.99,3.59l2.46,1.57h6.17l-0.1,1.4h-23.28l0.1-1.37h14.48l-7.45-4.73l0.11-1.6l6.06,3.82&#xA;&#x9;&#x9;l10.55-4.21L531.33,170.27z"></path>
&#x9;<path class="st0" d="M531.63,159.32c-0.21,0.23-0.35,0.33-0.86,0.46c0.33,0.46,1.18,1.5,1.06,3.17c-0.16,2.28-2.07,3.2-4.11,3.2&#xA;&#x9;&#x9;c-1.29,0-2.09-0.33-2.56-0.59c-1.68-0.95-2.22-2.74-3-4.31c-0.32-0.65-0.43-0.88-0.86-1.44h-1.88c-0.86,0-1.84-0.03-2.46,0.78&#xA;&#x9;&#x9;c-0.32,0.39-0.35,0.82-0.39,1.31c-0.08,1.21,0.41,1.63,0.92,1.86c0.77,0.36,1.92,0.33,2.78,0.29l-0.1,1.4c-1.81,0-2.54,0-3.37-0.39&#xA;&#x9;&#x9;c-1.79-0.82-1.62-2.84-1.58-3.36c0.05-0.69,0.22-1.3,0.6-1.92c0.81-1.27,1.98-1.4,3.3-1.4h11.14c0.6-0.07,0.6-0.52,0.63-0.98h1.32&#xA;&#x9;&#x9;C532.15,158.44,532.02,158.93,531.63,159.32z M522.86,159.78c0.24,0.33,0.45,0.68,0.62,1.04c0.29,0.55,0.52,1.11,0.78,1.63&#xA;&#x9;&#x9;c0.82,1.5,1.79,2.29,3.6,2.29c0.53,0,2.55-0.1,2.69-2.16c0.09-1.27-0.55-2.02-1.35-2.81h-6.34V159.78z"></path>
&#x9;<path class="st0" d="M532.89,147.84h-1.75c0.29,0.13,0.5,0.33,0.72,0.52c0.37,0.33,1.05,1.08,0.95,2.48&#xA;&#x9;&#x9;c-0.03,0.42-0.22,1.76-1.47,2.58c-0.93,0.62-1.96,0.68-2.95,0.68h-8.34c-0.46,0-2.51,0.1-3.49-1.44c-0.21-0.29-0.53-0.91-0.46-1.86&#xA;&#x9;&#x9;c0.12-1.76,1.26-2.51,1.75-2.91h-8.24l0.1-1.37h23.28L532.89,147.84z M520.56,147.91c-0.3,0.07-1.89,0.2-2.7,1.34&#xA;&#x9;&#x9;c-0.26,0.39-0.38,0.78-0.42,1.24c-0.07,1.04,0.6,1.83,1.53,2.12c0.39,0.13,0.82,0.13,1.21,0.13h8.05c1.02,0,1.98-0.03,2.76-0.85&#xA;&#x9;&#x9;c0.36-0.39,0.56-0.88,0.59-1.4c0.1-1.4-0.99-2.35-2.23-2.58H520.56z"></path>
&#x9;<path class="st0" d="M532.42,135.81c1.28,1.01,1.17,2.54,1.14,3.07c-0.03,0.46-0.13,0.98-0.3,1.4c-0.16,0.42-0.8,1.6-2.16,2.06&#xA;&#x9;&#x9;c-0.51,0.19-0.91,0.26-1.86,0.26h-8.71c-0.26,0-0.86,0-1.54-0.2c-0.94-0.29-2.33-1.11-2.16-3.53c0.12-1.76,0.98-2.67,1.67-3.13&#xA;&#x9;&#x9;c1.1-0.68,2.58-0.65,3.8-0.65h3.33l-0.43,6.14h4.09c0.13,0,0.69,0,1.2-0.13c0.67-0.2,1.66-0.68,1.78-2.32&#xA;&#x9;&#x9;c0.01-0.2,0.04-1.04-0.48-1.63c-0.09-0.1-0.31-0.33-0.69-0.46c-0.71-0.26-1.57-0.23-3.18-0.23l0.1-1.37h1.88&#xA;&#x9;&#x9;C530.88,135.09,531.63,135.19,532.42,135.81z M521.32,136.5c-1.45,0-2.2,0.36-2.67,0.91c-0.18,0.23-0.51,0.72-0.56,1.44&#xA;&#x9;&#x9;c-0.02,0.23-0.03,0.88,0.36,1.44c0.63,0.88,1.65,0.95,2.67,0.95h2.9l0.33-4.73h-3.03V136.5z"></path>
&#x9;<path class="st0" d="M534.91,119.01h-11.87c-1.85,0-2.8,0-3.39,0.91c-0.11,0.16-0.3,0.59-0.34,1.14c-0.03,0.91,0.28,1.63,0.94,2.15&#xA;&#x9;&#x9;c0.44,0.33,0.7,0.42,0.92,0.52h13.42l-0.1,1.4H521.4c-0.07,0-0.66,0-1.03,0.13c-0.91,0.26-1.46,1.08-1.52,1.96&#xA;&#x9;&#x9;c-0.08,1.08,0.5,1.76,0.72,1.99c0.28,0.29,0.37,0.36,0.91,0.65h13.68l-0.1,1.37h-16.59l0.1-1.4h1.38&#xA;&#x9;&#x9;c-0.28-0.23-0.43-0.42-0.52-0.52c-0.27-0.33-0.93-1.3-0.84-2.54c0.17-1.89,1.56-2.51,2.17-2.81c-0.5-0.36-1.92-1.31-1.78-3.3&#xA;&#x9;&#x9;c0.04-0.52,0.3-1.99,1.84-2.68c0.85-0.39,1.71-0.39,3.46-0.39h11.74L534.91,119.01z"></path>
&#x9;<path class="st0" d="M516.76,113.52h-2.57l0.1-1.4h2.57L516.76,113.52z M535.29,113.52H518.7l0.1-1.37h16.59L535.29,113.52z"></path>
&#x9;<path class="st0" d="M534.82,101.46c1.28,1.01,1.17,2.55,1.14,3.07c-0.03,0.46-0.13,0.98-0.3,1.4c-0.16,0.42-0.8,1.6-2.16,2.06&#xA;&#x9;&#x9;c-0.51,0.2-0.91,0.26-1.86,0.26h-8.71c-0.26,0-0.86,0-1.54-0.19c-0.94-0.29-2.33-1.11-2.16-3.52c0.12-1.76,0.98-2.68,1.67-3.13&#xA;&#x9;&#x9;c1.1-0.69,2.58-0.65,3.81-0.65h3.33l-0.43,6.14h4.09c0.13,0,0.69,0,1.2-0.13c0.67-0.2,1.66-0.69,1.78-2.32&#xA;&#x9;&#x9;c0.01-0.2,0.04-1.04-0.48-1.63c-0.09-0.1-0.31-0.33-0.69-0.46c-0.71-0.26-1.57-0.23-3.18-0.23l0.1-1.37h1.88&#xA;&#x9;&#x9;C533.29,100.75,534.04,100.84,534.82,101.46z M523.72,102.15c-1.45,0-2.2,0.36-2.67,0.91c-0.18,0.23-0.51,0.72-0.56,1.44&#xA;&#x9;&#x9;c-0.02,0.23-0.03,0.88,0.36,1.44c0.63,0.88,1.65,0.95,2.67,0.95h2.9l0.33-4.73h-3.03V102.15z"></path>
</g>
<g>
&#x9;<path class="st0" d="M366.18,437.29h-11.4c-0.7,0-1.23,0.21-1.59,0.63c-0.35,0.42-0.56,0.95-0.61,1.58l-2.4,27.45h-35.16&#xA;&#x9;&#x9;l2.41-27.56c0.07-0.84-0.11-1.41-0.54-1.69c-0.43-0.28-0.86-0.42-1.28-0.42h-11.4c-0.7,0-1.23,0.21-1.59,0.63&#xA;&#x9;&#x9;c-0.35,0.42-0.56,0.95-0.61,1.58l-6.48,74.01c-0.12,1.41,0.48,2.11,1.82,2.11h11.09c1.55,0,2.38-0.7,2.51-2.11l2.77-31.67h35.16&#xA;&#x9;&#x9;l-2.77,31.67c-0.12,1.41,0.48,2.11,1.82,2.11H359c1.48,0,2.28-0.7,2.4-2.11l6.48-74.12c0.07-0.84-0.09-1.41-0.48-1.69&#xA;&#x9;&#x9;C367.01,437.43,366.6,437.29,366.18,437.29z"></path>
&#x9;<path class="st0" d="M453.07,437.29h-11.4c-1.41,0-2.18,0.74-2.31,2.22l-0.5,5.66c-2.73-2.36-5.83-4.32-9.3-5.87&#xA;&#x9;&#x9;c-4.74-2.11-9.89-3.17-15.45-3.17s-10.88,1.06-15.96,3.17c-5.08,2.11-9.59,4.98-13.53,8.6c-3.94,3.63-7.17,7.88-9.67,12.78&#xA;&#x9;&#x9;c-2.5,4.89-4,10.15-4.49,15.78c-0.49,5.56,0.09,10.79,1.74,15.68c1.65,4.89,4.13,9.15,7.43,12.78c3.31,3.63,7.31,6.49,12.02,8.6&#xA;&#x9;&#x9;c4.71,2.11,9.84,3.17,15.4,3.17s10.9-1.06,16.01-3.17c3.75-1.55,7.19-3.51,10.33-5.87l-0.51,5.87c-0.12,1.41,0.52,2.11,1.93,2.11&#xA;&#x9;&#x9;h11.4c1.34,0,2.07-0.7,2.19-2.11l6.48-74.01C455.01,438.03,454.41,437.29,453.07,437.29z M426.79,494.47&#xA;&#x9;&#x9;c-2.42,2.29-5.2,4.1-8.34,5.44c-3.14,1.34-6.51,2.01-10.1,2.01c-3.52,0-6.74-0.67-9.64-2.01c-2.91-1.34-5.37-3.15-7.39-5.44&#xA;&#x9;&#x9;c-2.02-2.29-3.51-4.98-4.47-8.08c-0.96-3.1-1.29-6.4-0.98-9.92c0.31-3.59,1.22-6.93,2.72-10.03s3.46-5.79,5.88-8.08&#xA;&#x9;&#x9;c2.42-2.29,5.2-4.1,8.34-5.44c3.14-1.34,6.47-2.01,9.99-2.01c3.59,0,6.84,0.67,9.75,2.01s5.37,3.15,7.39,5.44&#xA;&#x9;&#x9;c2.02,2.29,3.52,4.98,4.52,8.08c1,3.1,1.34,6.44,1.02,10.03c-0.31,3.52-1.23,6.83-2.77,9.92&#xA;&#x9;&#x9;C431.19,489.49,429.21,492.18,426.79,494.47z"></path>
&#x9;<path class="st0" d="M526.33,438.08c-0.06-0.53-0.48-0.79-1.25-0.79h-13.62c-0.56,0-1.1,0.07-1.6,0.21&#xA;&#x9;&#x9;c-0.51,0.14-1.11,0.56-1.8,1.27l-32.16,33.26l2.85-32.62c0.06-0.7-0.16-1.23-0.65-1.58c-0.5-0.35-0.96-0.53-1.38-0.53h-11.19&#xA;&#x9;&#x9;c-1.34,0-2.07,0.7-2.19,2.11l-6.48,74.12c-0.12,1.41,0.48,2.11,1.82,2.11h11.4c1.34,0,2.07-0.7,2.19-2.11l1.84-21.01l10.4-10.24&#xA;&#x9;&#x9;l21.11,31.46c0.37,0.56,0.76,1.02,1.15,1.37c0.39,0.35,0.9,0.53,1.54,0.53h15.31c0.77,0,1.27-0.25,1.49-0.74s0.11-1.06-0.33-1.69&#xA;&#x9;&#x9;l-28.89-42.66l29.83-30.83C526.18,439.16,526.38,438.61,526.33,438.08z"></path>
</g>
<g>
&#x9;<path class="st0" d="M373.11,98.57h-11.04c-1.96,0-3.03,1.02-3.2,3.05l-5.33,60.95c-0.19,2.19-1.16,4.07-2.9,5.64&#xA;&#x9;&#x9;c-1.74,1.57-3.75,2.35-6.02,2.35c-2.66,0-4.61-0.53-5.85-1.58c-1.24-1.06-2.26-1.9-3.07-2.53c-0.36-0.31-0.8-0.47-1.31-0.47&#xA;&#x9;&#x9;s-1.23,0.43-2.17,1.29l-7.6,7.63c-0.35,0.39-0.62,0.84-0.82,1.35c-0.2,0.51-0.02,1.08,0.56,1.7c2.49,2.9,5.38,5.13,8.69,6.69&#xA;&#x9;&#x9;c3.31,1.57,6.88,2.35,10.72,2.35c3.05,0,6.12-0.55,9.19-1.64c3.07-1.1,5.88-2.76,8.42-4.99c2.54-2.23,4.71-5.05,6.49-8.46&#xA;&#x9;&#x9;c1.79-3.41,2.88-7.38,3.27-11.92l5.08-58.02C376.42,99.71,375.38,98.57,373.11,98.57z"></path>
&#x9;<path class="st0" d="M468.67,124.59c-1.87-5.44-4.67-10.18-8.39-14.21s-8.22-7.22-13.49-9.57c-5.28-2.35-11.01-3.52-17.19-3.52&#xA;&#x9;&#x9;c-6.19,0-12.1,1.17-17.75,3.52s-10.66,5.54-15.05,9.57c-4.39,4.03-7.97,8.77-10.76,14.21c-2.79,5.44-4.45,11.29-5,17.56&#xA;&#x9;&#x9;c-0.54,6.19,0.1,12,1.94,17.44c1.83,5.44,4.59,10.18,8.27,14.21c3.68,4.03,8.14,7.22,13.37,9.57c5.24,2.35,10.95,3.52,17.13,3.52&#xA;&#x9;&#x9;s12.12-1.17,17.81-3.52c5.68-2.35,10.74-5.54,15.17-9.57c4.42-4.03,8.05-8.77,10.87-14.21s4.51-11.25,5.05-17.44&#xA;&#x9;&#x9;C471.2,135.88,470.54,130.03,468.67,124.59z M453.39,142.15c-0.34,3.92-1.37,7.6-3.08,11.04c-1.71,3.45-3.91,6.44-6.6,8.99&#xA;&#x9;&#x9;c-2.69,2.54-5.78,4.56-9.28,6.05s-7.24,2.23-11.23,2.23c-3.92,0-7.49-0.74-10.73-2.23c-3.24-1.49-5.98-3.5-8.22-6.05&#xA;&#x9;&#x9;c-2.24-2.54-3.9-5.54-4.97-8.99c-1.07-3.44-1.43-7.12-1.09-11.04c0.35-3.99,1.36-7.71,3.03-11.16c1.67-3.45,3.85-6.44,6.54-8.99&#xA;&#x9;&#x9;c2.69-2.54,5.78-4.56,9.28-6.05c3.5-1.49,7.2-2.23,11.12-2.23c3.99,0,7.61,0.74,10.85,2.23c3.23,1.49,5.98,3.5,8.22,6.05&#xA;&#x9;&#x9;s3.92,5.54,5.03,8.99C453.36,134.44,453.74,138.16,453.39,142.15z"></path>
</g>
<linearGradient id="SVGID_1_" gradientUnits="userSpaceOnUse" x1="306.34" y1="284.355" x2="536.1227" y2="284.355" gradientTransform="matrix(1 0 0 -1 0 595)">
&#x9;<stop offset="0" style="stop-color:#1A2E3C"></stop>
&#x9;<stop offset="0.3956" style="stop-color:#025578"></stop>
&#x9;<stop offset="0.7991" style="stop-color:#80CCDB"></stop>
</linearGradient>
<path class="st1" d="M536.08,219.72c0.66-9.39-6.42-16.99-15.81-16.99H338.42c-9.39,0-17.53,7.61-18.18,16.99l-13.9,198.84h53.96&#xA;&#x9;l8.95-128.05c1.31-18.68,17.51-33.83,36.19-33.83h128.05L536.08,219.72z"></path>
<path class="st2" d="M428.01,364.6h-36.96l-3.77,53.96h53.96l2.58-36.96C444.47,372.21,437.4,364.6,428.01,364.6z"></path>
<path class="st3" d="M413.7,283.66c-9.39,0-17.53,7.61-18.18,16.99l-2.58,36.96h63.94c9.39,0,16.46,7.61,15.81,16.99l-4.47,63.94&#xA;&#x9;h53.96l8.24-117.9c0.66-9.39-6.42-16.99-15.81-16.99H413.7V283.66z"></path>
</svg>