<?xml version="1.0"?>

<svg version="1.1" id="Ebene_1" xmlns="http://www.w3.org/2000/svg" xmlns:xlink="http://www.w3.org/1999/xlink" x="0px" y="0px" viewBox="0 0 841.89 595.28" style="enable-background:new 0 0 841.89 595.28;" xml:space="preserve">

<linearGradient id="SVGID_1_" gradientUnits="userSpaceOnUse" x1="729.8456" y1="247.5993" x2="871.1568" y2="388.9104" gradientTransform="matrix(1 0 -0.019 -1 -467.6486 595)">
&#x9;<stop offset="0" style="stop-color:#1A2E3C"></stop>
&#x9;<stop offset="0.3997" style="stop-color:#025578"></stop>
&#x9;<stop offset="0.7997" style="stop-color:#80CCDB"></stop>
</linearGradient>
<path class="st0" d="M424.99,239.46c0.41-5.94-4.08-10.75-10.01-10.75H295.72c-5.94,0-11.08,4.81-11.48,10.75l-8.61,125.74h38.39&#xA;&#x9;l5.55-80.97c0.81-11.81,11.04-21.39,22.86-21.39h80.97L424.99,239.46z"></path>
<path class="st1" d="M356.79,331.08h-23.37l-2.34,34.12h34.12l1.6-23.37C367.2,335.89,362.72,331.08,356.79,331.08z"></path>
<path class="st2" d="M347.66,279.9c-5.94,0-11.08,4.81-11.48,10.75l-1.6,23.37h40.44c5.94,0,10.42,4.81,10.01,10.75l-2.77,40.44&#xA;&#x9;h34.12l5.11-74.56c0.41-5.94-4.08-10.75-10.01-10.75H347.66z"></path>
<g>
&#x9;<path class="st3" d="M454.64,365.2l0.85-12.19h-6.35l-0.85,12.19h-1.68l1.73-24.65h1.68l-0.77,10.96h6.35l0.77-10.96h1.71&#xA;&#x9;&#x9;l-1.73,24.65H454.64z"></path>
&#x9;<path class="st3" d="M473.67,364.71c-0.23-0.21-0.33-0.35-0.43-0.87c-0.51,0.38-1.7,1.36-3.48,1.36c-2.44,0-3.29-1.96-3.13-4.12&#xA;&#x9;&#x9;c0.1-1.36,0.51-2.23,0.82-2.76c1.14-1.85,3.11-2.55,4.85-3.49c0.73-0.38,0.98-0.52,1.61-1.01l0.14-1.99&#xA;&#x9;&#x9;c0.06-0.91,0.17-1.96-0.66-2.55c-0.4-0.31-0.85-0.31-1.38-0.31c-1.29,0-1.79,0.56-2.07,1.12c-0.44,0.84-0.49,2.06-0.52,2.97h-1.5&#xA;&#x9;&#x9;c0.13-1.92,0.19-2.69,0.67-3.6c1.01-1.96,3.17-1.92,3.73-1.92c0.73,0,1.39,0.14,2.03,0.49c1.31,0.77,1.36,1.99,1.26,3.39&#xA;&#x9;&#x9;l-0.83,11.8c0.03,0.63,0.52,0.59,1.01,0.59l-0.1,1.4C474.58,365.2,474.06,365.09,473.67,364.71z M473.83,355.46&#xA;&#x9;&#x9;c-0.37,0.28-0.77,0.52-1.17,0.73c-0.62,0.35-1.23,0.63-1.81,0.94c-1.67,0.98-2.59,2.06-2.72,3.98c-0.04,0.56-0.08,2.69,2.12,2.69&#xA;&#x9;&#x9;c1.36,0,2.21-0.73,3.12-1.64L473.83,355.46z"></path>
&#x9;<path class="st3" d="M491.75,365.2l0.99-14.07c-0.03-0.14,0.01-0.63-0.1-1.08c-0.14-0.45-0.6-1.36-1.9-1.33&#xA;&#x9;&#x9;c-1.01,0-1.96,0.52-2.57,1.33c-0.19,0.24-0.27,0.38-0.52,0.87l-1,14.28h-1.47l1.23-17.56h1.47l-0.12,1.68&#xA;&#x9;&#x9;c0.31-0.45,0.54-0.66,0.72-0.84c1.01-0.94,2.17-1.05,2.66-1.05c1.43,0.03,2.67,0.73,2.99,2.23c0.11,0.49,0.11,0.94,0.07,1.43&#xA;&#x9;&#x9;l-0.99,14.11H491.75z"></path>
&#x9;<path class="st3" d="M510.26,365.2l0.13-1.85c-0.16,0.31-0.39,0.56-0.61,0.8c-0.38,0.42-1.24,1.19-2.74,1.19&#xA;&#x9;&#x9;c-0.45,0-1.88-0.1-2.66-1.36c-0.6-0.94-0.59-2.02-0.52-3.07l0.62-8.83c0.03-0.49,0.08-2.65,1.8-3.81c0.33-0.25,1.02-0.63,2.03-0.63&#xA;&#x9;&#x9;c1.88,0,2.61,1.15,2.99,1.64l0.61-8.73h1.47l-1.73,24.65H510.26z M511.1,352.14c-0.05-0.31-0.07-1.99-1.24-2.76&#xA;&#x9;&#x9;c-0.4-0.25-0.81-0.35-1.3-0.35c-1.12,0-2.01,0.77-2.39,1.78c-0.17,0.42-0.2,0.87-0.23,1.29l-0.6,8.52&#xA;&#x9;&#x9;c-0.08,1.08-0.11,2.09,0.71,2.86c0.39,0.35,0.91,0.52,1.46,0.52c1.5,0,2.6-1.22,2.94-2.55L511.1,352.14z"></path>
&#x9;<path class="st3" d="M529.35,363.8c-1.18,1.43-2.82,1.43-3.38,1.43c-0.49,0-1.04-0.07-1.49-0.21c-0.44-0.14-1.66-0.73-2.05-2.13&#xA;&#x9;&#x9;c-0.17-0.52-0.21-0.94-0.14-1.96l0.65-9.22c0.02-0.28,0.06-0.91,0.33-1.64c0.39-1.01,1.37-2.55,3.95-2.55&#xA;&#x9;&#x9;c1.88,0,2.8,0.84,3.24,1.54c0.66,1.12,0.51,2.69,0.42,3.98l-0.25,3.53h-6.56l-0.3,4.33c-0.01,0.14-0.05,0.73,0.05,1.26&#xA;&#x9;&#x9;c0.16,0.7,0.61,1.71,2.36,1.71c0.21,0,1.12-0.03,1.79-0.63c0.11-0.11,0.37-0.35,0.54-0.77c0.33-0.77,0.36-1.68,0.48-3.39h1.47&#xA;&#x9;&#x9;l-0.14,1.99C530.24,362.13,530.07,362.93,529.35,363.8z M529.44,352.11c0.11-1.54-0.22-2.3-0.78-2.76&#xA;&#x9;&#x9;c-0.23-0.17-0.73-0.49-1.5-0.49c-0.24,0-0.95,0.04-1.57,0.49c-1,0.73-1.14,1.82-1.22,2.9l-0.22,3.07h5.06L529.44,352.11z"></path>
&#x9;<path class="st3" d="M540.22,365.2l1.73-24.65h1.47l-1.73,24.65H540.22z"></path>
&#x9;<path class="st3" d="M557.77,364.82c-0.4,0.17-1.08,0.45-2.13,0.45c-0.87,0-1.77-0.18-2.5-0.63c-0.1-0.07-0.46-0.35-0.72-0.63&#xA;&#x9;&#x9;c-0.1-0.14-0.19-0.28-0.31-0.59c-0.3-0.7-0.43-1.36-0.32-2.9l0.11-1.5h1.47l-0.07,1.01c-0.06,0.84-0.18,2.03,0.29,2.83&#xA;&#x9;&#x9;c0.22,0.38,0.52,0.56,0.65,0.63c0.64,0.35,1.23,0.35,1.51,0.35c0.21,0,0.73,0.03,1.27-0.21c1.11-0.45,1.45-1.71,1.52-2.72&#xA;&#x9;&#x9;c0.14-1.99-0.69-2.62-2.04-3.81c-1.15-0.98-1.94-1.78-2.36-2.23c-0.45-0.56-1.18-1.61-1.04-3.53c0.09-1.33,0.54-3.77,3.96-3.77&#xA;&#x9;&#x9;c3.74,0,3.46,3,3.37,4.23l-0.08,1.19h-1.5l0.09-1.26c0.07-1.01,0.05-2.2-1.04-2.62c-0.37-0.14-0.86-0.14-0.97-0.14&#xA;&#x9;&#x9;c-1.47,0-2.21,0.7-2.32,2.23c-0.07,1.01-0.04,1.61,0.57,2.37c0.35,0.49,1.26,1.4,2.45,2.44c0.5,0.42,0.99,0.84,1.44,1.33&#xA;&#x9;&#x9;c0.48,0.56,1.11,1.64,0.97,3.56C559.86,363.31,558.82,364.33,557.77,364.82z"></path>
&#x9;<path class="st3" d="M575.97,364.71c-0.23-0.21-0.33-0.35-0.43-0.87c-0.51,0.38-1.7,1.36-3.48,1.36c-2.44,0-3.29-1.96-3.13-4.12&#xA;&#x9;&#x9;c0.1-1.36,0.51-2.23,0.82-2.76c1.14-1.85,3.11-2.55,4.85-3.49c0.73-0.38,0.98-0.52,1.61-1.01l0.14-1.99&#xA;&#x9;&#x9;c0.06-0.91,0.17-1.96-0.66-2.55c-0.4-0.31-0.85-0.31-1.38-0.31c-1.29,0-1.79,0.56-2.07,1.12c-0.44,0.84-0.49,2.06-0.52,2.97h-1.5&#xA;&#x9;&#x9;c0.13-1.92,0.19-2.69,0.67-3.6c1.01-1.96,3.17-1.92,3.73-1.92c0.73,0,1.39,0.14,2.03,0.49c1.31,0.77,1.36,1.99,1.26,3.39&#xA;&#x9;&#x9;l-0.83,11.8c0.03,0.63,0.52,0.59,1.01,0.59l-0.1,1.4C576.87,365.2,576.36,365.09,575.97,364.71z M576.12,355.46&#xA;&#x9;&#x9;c-0.37,0.28-0.77,0.52-1.17,0.73c-0.62,0.35-1.23,0.63-1.81,0.94c-1.67,0.98-2.59,2.06-2.72,3.98c-0.04,0.56-0.08,2.69,2.12,2.69&#xA;&#x9;&#x9;c1.36,0,2.21-0.73,3.12-1.64L576.12,355.46z"></path>
&#x9;<path class="st3" d="M594.4,365.2l-3.19-9.25l-1.87,2.72l-0.46,6.53h-1.5l1.73-24.65h1.47l-1.07,15.33l5.64-8.24h1.71l-4.55,6.7&#xA;&#x9;&#x9;l3.74,10.86H594.4z"></path>
&#x9;<path class="st3" d="M611.79,364.71c-0.23-0.21-0.33-0.35-0.43-0.87c-0.51,0.38-1.7,1.36-3.48,1.36c-2.44,0-3.28-1.96-3.13-4.12&#xA;&#x9;&#x9;c0.1-1.36,0.5-2.23,0.82-2.76c1.14-1.85,3.11-2.55,4.85-3.49c0.72-0.38,0.98-0.52,1.61-1.01l0.14-1.99&#xA;&#x9;&#x9;c0.06-0.91,0.17-1.96-0.66-2.55c-0.4-0.31-0.85-0.31-1.38-0.31c-1.29,0-1.78,0.56-2.07,1.12c-0.44,0.84-0.49,2.06-0.52,2.97h-1.5&#xA;&#x9;&#x9;c0.13-1.92,0.19-2.69,0.67-3.6c1.01-1.96,3.17-1.92,3.73-1.92c0.73,0,1.39,0.14,2.03,0.49c1.31,0.77,1.36,1.99,1.26,3.39&#xA;&#x9;&#x9;l-0.83,11.8c0.03,0.63,0.52,0.59,1.01,0.59l-0.1,1.4C612.7,365.2,612.18,365.09,611.79,364.71z M611.95,355.46&#xA;&#x9;&#x9;c-0.37,0.28-0.77,0.52-1.17,0.73c-0.62,0.35-1.23,0.63-1.81,0.94c-1.67,0.98-2.59,2.06-2.72,3.98c-0.04,0.56-0.08,2.69,2.12,2.69&#xA;&#x9;&#x9;c1.36,0,2.21-0.73,3.12-1.64L611.95,355.46z"></path>
&#x9;<path class="st3" d="M629.77,365.2l0.13-1.85c-0.16,0.31-0.39,0.56-0.62,0.8c-0.38,0.42-1.24,1.19-2.74,1.19&#xA;&#x9;&#x9;c-0.45,0-1.88-0.1-2.66-1.36c-0.6-0.94-0.59-2.02-0.52-3.07l0.62-8.83c0.03-0.49,0.08-2.65,1.8-3.81c0.33-0.25,1.02-0.63,2.03-0.63&#xA;&#x9;&#x9;c1.88,0,2.61,1.15,2.99,1.64l0.61-8.73h1.47l-1.73,24.65H629.77z M630.61,352.14c-0.05-0.31-0.07-1.99-1.24-2.76&#xA;&#x9;&#x9;c-0.4-0.25-0.81-0.35-1.3-0.35c-1.12,0-2.01,0.77-2.39,1.78c-0.17,0.42-0.2,0.87-0.23,1.29l-0.6,8.52&#xA;&#x9;&#x9;c-0.08,1.08-0.11,2.09,0.71,2.86c0.39,0.35,0.91,0.52,1.46,0.52c1.5,0,2.6-1.22,2.94-2.55L630.61,352.14z"></path>
&#x9;<path class="st3" d="M648.86,363.8c-1.18,1.43-2.82,1.43-3.38,1.43c-0.49,0-1.04-0.07-1.49-0.21c-0.44-0.14-1.66-0.73-2.05-2.13&#xA;&#x9;&#x9;c-0.17-0.52-0.21-0.94-0.14-1.96l0.65-9.22c0.02-0.28,0.06-0.91,0.33-1.64c0.39-1.01,1.37-2.55,3.95-2.55&#xA;&#x9;&#x9;c1.88,0,2.8,0.84,3.24,1.54c0.66,1.12,0.51,2.69,0.42,3.98l-0.25,3.53h-6.56l-0.3,4.33c-0.01,0.14-0.05,0.73,0.05,1.26&#xA;&#x9;&#x9;c0.16,0.7,0.61,1.71,2.36,1.71c0.21,0,1.12-0.03,1.79-0.63c0.11-0.11,0.37-0.35,0.54-0.77c0.33-0.77,0.36-1.68,0.48-3.39h1.47&#xA;&#x9;&#x9;l-0.14,1.99C649.74,362.13,649.58,362.93,648.86,363.8z M648.95,352.11c0.11-1.54-0.22-2.3-0.78-2.76&#xA;&#x9;&#x9;c-0.23-0.17-0.73-0.49-1.5-0.49c-0.24,0-0.95,0.04-1.57,0.49c-1,0.73-1.14,1.82-1.22,2.9l-0.22,3.07h5.06L648.95,352.11z"></path>
&#x9;<path class="st3" d="M672.85,365.2l0.88-12.57c0.14-1.96,0.21-2.97-0.73-3.53c-0.17-0.1-0.61-0.28-1.2-0.28&#xA;&#x9;&#x9;c-0.98,0.04-1.78,0.42-2.38,1.15c-0.38,0.49-0.51,0.77-0.63,1.01l-1,14.21h-1.5l0.97-13.86c0-0.07,0.05-0.7-0.06-1.08&#xA;&#x9;&#x9;c-0.21-0.94-1.05-1.47-1.99-1.47c-1.15,0-1.93,0.66-2.19,0.91c-0.34,0.31-0.41,0.42-0.77,1.01l-1.01,14.49h-1.47l1.23-17.56h1.5&#xA;&#x9;&#x9;l-0.1,1.47c0.27-0.31,0.49-0.49,0.6-0.59c0.37-0.31,1.47-1.08,2.8-1.08c2.02,0.03,2.59,1.47,2.86,2.09&#xA;&#x9;&#x9;c0.42-0.56,1.55-2.13,3.68-2.13c0.56,0,2.12,0.17,2.74,1.75c0.36,0.87,0.29,1.78,0.16,3.63l-0.87,12.43L672.85,365.2L672.85,365.2z&#xA;&#x9;&#x9;"></path>
&#x9;<path class="st3" d="M684.86,365.2l1.23-17.56h1.47l-1.23,17.56H684.86z M686.24,345.58l0.19-2.72h1.5l-0.19,2.72H686.24z"></path>
&#x9;<path class="st3" d="M704.02,363.8c-1.18,1.43-2.82,1.43-3.38,1.43c-0.49,0-1.04-0.07-1.49-0.21c-0.44-0.14-1.66-0.73-2.05-2.13&#xA;&#x9;&#x9;c-0.17-0.52-0.21-0.94-0.14-1.96l0.65-9.22c0.02-0.28,0.06-0.91,0.33-1.64c0.39-1.01,1.37-2.55,3.95-2.55&#xA;&#x9;&#x9;c1.88,0,2.8,0.84,3.24,1.54c0.66,1.12,0.51,2.69,0.42,3.98l-0.25,3.53h-6.56l-0.3,4.33c-0.01,0.14-0.05,0.73,0.05,1.26&#xA;&#x9;&#x9;c0.16,0.7,0.61,1.71,2.36,1.71c0.21,0,1.12-0.03,1.79-0.63c0.11-0.11,0.37-0.35,0.54-0.77c0.33-0.77,0.36-1.68,0.48-3.39h1.47&#xA;&#x9;&#x9;l-0.14,1.99C704.91,362.13,704.75,362.93,704.02,363.8z M704.11,352.11c0.11-1.54-0.22-2.3-0.78-2.76&#xA;&#x9;&#x9;c-0.23-0.17-0.73-0.49-1.5-0.49c-0.24,0-0.95,0.04-1.57,0.49c-1,0.73-1.14,1.82-1.22,2.9l-0.22,3.07h5.06L704.11,352.11z"></path>
</g>
<g>
&#x9;<path class="st3" d="M110.64,363.77c-0.65,0.87-1.94,1.82-4.32,1.82c-0.94,0-2.05-0.17-2.79-0.59c-0.17-0.11-0.43-0.28-0.76-0.59&#xA;&#x9;&#x9;c-0.52-0.49-0.87-1.05-1.1-1.78c-0.2-0.7-0.19-1.26-0.14-1.99l0.24-3.49h1.71l-0.14,1.99c-0.04,0.52-0.1,1.01-0.11,1.54&#xA;&#x9;&#x9;c-0.01,1.19,0.21,3.42,3.39,3.42c0.28,0,1.05,0,1.81-0.45c0.91-0.52,1.47-1.57,1.61-3.6c0.13-1.92-0.22-2.79-0.63-3.53&#xA;&#x9;&#x9;c-0.81-1.4-2.34-2.97-2.57-3.18c-1.33-1.4-2.14-2.37-2.61-3.11c-0.54-0.8-1.24-2.2-1.08-4.58c0.01-0.14,0.08-1.15,0.27-1.85&#xA;&#x9;&#x9;c0.34-1.4,1.3-3.6,4.76-3.6c0.38,0,1.78,0,2.85,0.7c1.63,1.12,1.49,3.21,1.36,4.99l-0.12,1.78h-1.68l0.15-2.2&#xA;&#x9;&#x9;c0.06-0.87,0.08-1.15,0.01-1.64c-0.08-0.84-0.51-2.17-2.64-2.17c-0.24,0-1.05,0-1.78,0.42c-0.8,0.49-1.32,1.47-1.45,3.28&#xA;&#x9;&#x9;c-0.16,2.34,0.4,3.28,1.78,4.99c0.48,0.63,1,1.22,1.55,1.85c0.81,0.87,1.63,1.71,2.33,2.69c1.11,1.54,1.37,2.9,1.23,4.85&#xA;&#x9;&#x9;C111.65,361.81,111.18,363.04,110.64,363.77z"></path>
&#x9;<path class="st3" d="M121.75,364.64c-0.35-0.45-0.36-0.87-0.32-1.43l0.99-14.18h-1.85l0.1-1.4h1.85l0.32-4.54h1.5l-0.32,4.54h2.65&#xA;&#x9;&#x9;l-0.1,1.4h-2.65l-0.97,13.83c-0.07,1.01,0.94,1.01,1.25,1.01c0.45,0,0.88-0.03,1.33-0.07l-0.1,1.4&#xA;&#x9;&#x9;C123.51,365.34,122.36,365.34,121.75,364.64z"></path>
&#x9;<path class="st3" d="M133.75,365.2l0.22-3.14h1.54l-0.22,3.14H133.75z"></path>
&#x9;<path class="st3" d="M159,361.64c-0.08,0.59-0.33,2.2-1.9,3.21c-1.02,0.66-2.11,0.7-2.49,0.7c-0.35,0-1.22-0.03-2.03-0.49&#xA;&#x9;&#x9;c-1.95-1.08-1.71-3.56-1.67-4.08l0.25-3.56h1.68l-0.22,3.21c-0.08,1.12-0.15,2.2,0.81,2.93c0.53,0.42,1.12,0.45,1.37,0.45&#xA;&#x9;&#x9;c0.21,0,0.8-0.04,1.35-0.38c1.2-0.73,1.23-2.1,1.26-2.48l1.44-20.6h1.68l-1.41,20.15C159.08,361.01,159.06,361.32,159,361.64z"></path>
&#x9;<path class="st3" d="M176.57,362.51c-0.91,2.55-3.33,2.76-4.1,2.76c-1.5,0-3.1-0.66-3.58-2.17c-0.23-0.66-0.21-1.43-0.17-2.13&#xA;&#x9;&#x9;l0.65-9.22c0.07-1.05,0.2-1.78,0.92-2.65c0.54-0.7,1.65-1.57,3.6-1.57c1.08,0,2.11,0.25,2.86,1.01c0.33,0.35,0.57,0.84,0.71,1.29&#xA;&#x9;&#x9;c0.2,0.7,0.15,1.33,0.1,2.03l-0.59,8.38C176.92,361.05,176.83,361.81,176.57,362.51z M176.05,352c0.07-1.01,0.03-1.96-0.83-2.58&#xA;&#x9;&#x9;c-0.26-0.21-0.7-0.42-1.44-0.42c-0.28,0-1.05,0-1.71,0.49c-1.1,0.77-1.18,1.85-1.26,2.97l-0.59,8.49c-0.01,0.17-0.05,0.7,0.03,1.15&#xA;&#x9;&#x9;c0.23,1.19,1.13,1.75,2.32,1.75c1.57,0,2.23-0.91,2.51-1.5c0.16-0.35,0.3-0.73,0.35-1.54L176.05,352z"></path>
&#x9;<path class="st3" d="M192.76,365.2l0.91-13.02c0.09-1.26,0.16-2.76-1.31-3.18c-0.1-0.04-0.45-0.11-0.76-0.11&#xA;&#x9;&#x9;c-1.47,0-2.35,1.08-2.58,1.47c-0.23,0.35-0.37,0.77-0.38,0.87l-0.98,13.97h-1.5l1.73-24.65h1.5l-0.56,8.45&#xA;&#x9;&#x9;c0.3-0.32,0.83-0.94,1.87-1.33c0.61-0.21,1.17-0.24,1.38-0.24c0.63,0,1,0.14,1.24,0.21c0.54,0.21,1.53,0.66,1.84,2.13&#xA;&#x9;&#x9;c0.13,0.56,0.11,0.94,0.07,1.5l-0.98,13.93L192.76,365.2L192.76,365.2z"></path>
&#x9;<path class="st3" d="M210.49,364.71c-0.23-0.21-0.33-0.35-0.43-0.87c-0.51,0.38-1.7,1.36-3.48,1.36c-2.44,0-3.29-1.96-3.13-4.12&#xA;&#x9;&#x9;c0.1-1.36,0.51-2.23,0.82-2.76c1.14-1.85,3.11-2.55,4.85-3.49c0.73-0.38,0.98-0.52,1.61-1.01l0.14-1.99&#xA;&#x9;&#x9;c0.06-0.91,0.17-1.96-0.66-2.55c-0.4-0.31-0.85-0.31-1.38-0.31c-1.29,0-1.79,0.56-2.07,1.12c-0.44,0.84-0.49,2.06-0.52,2.97h-1.5&#xA;&#x9;&#x9;c0.13-1.92,0.19-2.69,0.67-3.6c1.01-1.96,3.17-1.92,3.73-1.92c0.73,0,1.39,0.14,2.03,0.49c1.31,0.77,1.36,1.99,1.26,3.39&#xA;&#x9;&#x9;l-0.83,11.8c0.03,0.63,0.52,0.59,1.01,0.59l-0.1,1.4C211.4,365.2,210.89,365.09,210.49,364.71z M210.65,355.46&#xA;&#x9;&#x9;c-0.37,0.28-0.77,0.52-1.17,0.73c-0.62,0.35-1.23,0.63-1.81,0.94c-1.67,0.98-2.59,2.06-2.72,3.98c-0.04,0.56-0.08,2.69,2.12,2.69&#xA;&#x9;&#x9;c1.36,0,2.21-0.73,3.12-1.64L210.65,355.46z"></path>
&#x9;<path class="st3" d="M227.88,365.2l0.99-14.07c-0.02-0.14,0.01-0.63-0.1-1.08c-0.14-0.45-0.6-1.36-1.9-1.33&#xA;&#x9;&#x9;c-1.01,0-1.96,0.52-2.57,1.33c-0.19,0.24-0.27,0.38-0.51,0.87l-1,14.28h-1.47l1.23-17.56h1.47l-0.12,1.68&#xA;&#x9;&#x9;c0.31-0.45,0.54-0.66,0.72-0.84c1.01-0.94,2.17-1.05,2.66-1.05c1.43,0.03,2.67,0.73,2.99,2.23c0.11,0.49,0.11,0.94,0.07,1.43&#xA;&#x9;&#x9;l-0.99,14.11H227.88z"></path>
&#x9;<path class="st3" d="M245.79,365.2l0.99-14.07c-0.03-0.14,0.01-0.63-0.1-1.08c-0.14-0.45-0.6-1.36-1.9-1.33&#xA;&#x9;&#x9;c-1.01,0-1.96,0.52-2.57,1.33c-0.19,0.24-0.27,0.38-0.52,0.87l-1,14.28h-1.47l1.23-17.56h1.47l-0.12,1.68&#xA;&#x9;&#x9;c0.31-0.45,0.54-0.66,0.72-0.84c1.01-0.94,2.17-1.05,2.66-1.05c1.43,0.03,2.67,0.73,2.99,2.23c0.11,0.49,0.11,0.94,0.07,1.43&#xA;&#x9;&#x9;l-0.99,14.11H245.79z"></path>
</g>
<g>
&#x9;<path class="st3" d="M529.01,236.54h-12.87c-0.79,0-1.39,0.24-1.79,0.72c-0.4,0.48-0.63,1.07-0.69,1.79l-2.71,30.97h-39.67&#xA;&#x9;&#x9;l2.72-31.09c0.08-0.95-0.12-1.59-0.61-1.91s-0.97-0.48-1.45-0.48h-12.86c-0.79,0-1.39,0.24-1.79,0.72s-0.63,1.07-0.69,1.79&#xA;&#x9;&#x9;l-7.31,83.5c-0.14,1.59,0.54,2.38,2.05,2.38h12.51c1.75,0,2.69-0.79,2.83-2.38l3.13-35.74h39.67l-3.13,35.74&#xA;&#x9;&#x9;c-0.14,1.59,0.54,2.38,2.05,2.38h12.51c1.67,0,2.57-0.79,2.71-2.38l7.32-83.62c0.08-0.95-0.1-1.59-0.55-1.91&#xA;&#x9;&#x9;C529.95,236.7,529.48,236.54,529.01,236.54z"></path>
&#x9;<path class="st3" d="M627.04,236.54h-12.86c-1.59,0-2.46,0.83-2.6,2.5l-0.56,6.39c-3.08-2.67-6.57-4.88-10.5-6.63&#xA;&#x9;&#x9;c-5.35-2.38-11.16-3.57-17.44-3.57c-6.27,0-12.27,1.19-18,3.57s-10.82,5.62-15.26,9.71c-4.45,4.09-8.08,8.89-10.91,14.41&#xA;&#x9;&#x9;c-2.83,5.52-4.52,11.46-5.07,17.81c-0.55,6.27,0.11,12.17,1.97,17.69s4.65,10.33,8.39,14.41c3.73,4.09,8.25,7.33,13.56,9.71&#xA;&#x9;&#x9;s11.1,3.57,17.38,3.57c6.27,0,12.29-1.19,18.06-3.57c4.23-1.75,8.11-3.96,11.66-6.63l-0.58,6.63c-0.14,1.59,0.58,2.38,2.17,2.38&#xA;&#x9;&#x9;h12.86c1.51,0,2.33-0.79,2.47-2.38l7.31-83.5C629.23,237.38,628.55,236.54,627.04,236.54z M597.39,301.05&#xA;&#x9;&#x9;c-2.73,2.58-5.87,4.63-9.41,6.13c-3.55,1.51-7.35,2.26-11.39,2.26c-3.97,0-7.6-0.75-10.88-2.26s-6.06-3.55-8.34-6.13&#xA;&#x9;&#x9;c-2.28-2.58-3.96-5.62-5.04-9.11c-1.08-3.49-1.45-7.22-1.1-11.2c0.35-4.05,1.38-7.82,3.07-11.32c1.69-3.49,3.91-6.53,6.63-9.11&#xA;&#x9;&#x9;c2.73-2.58,5.86-4.62,9.41-6.13c3.54-1.51,7.3-2.26,11.28-2.26c4.05,0,7.71,0.75,11,2.26c3.28,1.51,6.06,3.55,8.34,6.13&#xA;&#x9;&#x9;c2.27,2.58,3.97,5.62,5.1,9.11c1.12,3.5,1.51,7.27,1.15,11.32c-0.35,3.97-1.39,7.7-3.12,11.2&#xA;&#x9;&#x9;C602.35,295.43,600.12,298.47,597.39,301.05z"></path>
&#x9;<path class="st3" d="M709.69,237.44c-0.07-0.6-0.54-0.89-1.41-0.89h-15.37c-0.64,0-1.24,0.08-1.81,0.24s-1.25,0.64-2.03,1.43&#xA;&#x9;&#x9;l-36.28,37.52l3.22-36.81c0.07-0.79-0.18-1.39-0.74-1.79s-1.08-0.6-1.56-0.6h-12.63c-1.51,0-2.33,0.79-2.47,2.38l-7.32,83.62&#xA;&#x9;&#x9;c-0.14,1.59,0.54,2.38,2.05,2.38h12.86c1.51,0,2.33-0.79,2.47-2.38l2.07-23.71l11.73-11.55l23.82,35.5&#xA;&#x9;&#x9;c0.42,0.64,0.85,1.15,1.29,1.55s1.02,0.59,1.73,0.59h17.27c0.87,0,1.43-0.28,1.68-0.83s0.12-1.19-0.37-1.91l-32.6-48.12&#xA;&#x9;&#x9;l33.66-34.78C709.52,238.65,709.75,238.03,709.69,237.44z"></path>
</g>
<g>
&#x9;<path class="st3" d="M152.82,235.7h-11.2c-1.99,0-3.07,1.03-3.25,3.1l-5.41,61.82c-0.2,2.22-1.18,4.13-2.94,5.72&#xA;&#x9;&#x9;c-1.77,1.59-3.8,2.38-6.1,2.38c-2.7,0-4.68-0.54-5.93-1.61c-1.26-1.07-2.29-1.93-3.11-2.56c-0.37-0.32-0.81-0.48-1.33-0.48&#xA;&#x9;&#x9;c-0.52,0-1.25,0.44-2.2,1.31l-7.71,7.74c-0.35,0.4-0.63,0.85-0.83,1.37c-0.2,0.52-0.02,1.09,0.56,1.73&#xA;&#x9;&#x9;c2.52,2.94,5.46,5.2,8.82,6.79s6.98,2.38,10.87,2.38c3.1,0,6.2-0.56,9.32-1.67c3.11-1.11,5.96-2.8,8.54-5.06s4.78-5.12,6.59-8.58&#xA;&#x9;&#x9;c1.81-3.45,2.92-7.48,3.32-12.09l5.15-58.84C156.17,236.86,155.12,235.7,152.82,235.7z"></path>
&#x9;<path class="st3" d="M249.73,262.09c-1.9-5.52-4.74-10.32-8.51-14.41c-3.77-4.09-8.33-7.33-13.68-9.71&#xA;&#x9;&#x9;c-5.35-2.38-11.16-3.57-17.44-3.57c-6.27,0-12.27,1.19-18,3.57s-10.82,5.62-15.26,9.71c-4.45,4.09-8.08,8.89-10.91,14.41&#xA;&#x9;&#x9;s-4.52,11.46-5.07,17.81c-0.55,6.27,0.11,12.17,1.97,17.69s4.65,10.33,8.39,14.41c3.73,4.09,8.25,7.33,13.56,9.71&#xA;&#x9;&#x9;s11.1,3.57,17.38,3.57c6.27,0,12.29-1.19,18.06-3.57s10.89-5.62,15.38-9.71s8.16-8.89,11.03-14.41c2.86-5.52,4.57-11.42,5.12-17.69&#xA;&#x9;&#x9;C252.3,273.54,251.63,267.61,249.73,262.09z M234.24,279.9c-0.35,3.97-1.39,7.7-3.12,11.2c-1.74,3.5-3.97,6.53-6.69,9.11&#xA;&#x9;&#x9;c-2.73,2.58-5.87,4.63-9.41,6.13c-3.55,1.51-7.35,2.26-11.39,2.26c-3.97,0-7.6-0.75-10.88-2.26s-6.06-3.55-8.34-6.13&#xA;&#x9;&#x9;c-2.28-2.58-3.96-5.62-5.04-9.11c-1.08-3.49-1.45-7.22-1.1-11.2c0.35-4.05,1.38-7.82,3.07-11.32c1.69-3.49,3.91-6.53,6.63-9.11&#xA;&#x9;&#x9;c2.73-2.58,5.86-4.62,9.41-6.13c3.54-1.51,7.3-2.26,11.28-2.26c4.05,0,7.71,0.75,11,2.26c3.28,1.51,6.06,3.55,8.34,6.13&#xA;&#x9;&#x9;c2.27,2.58,3.97,5.62,5.1,9.11C234.21,272.08,234.59,275.85,234.24,279.9z"></path>
</g>
</svg>