<?xml version="1.0"?>

<svg version="1.1" id="Ebene_1" xmlns="http://www.w3.org/2000/svg" xmlns:xlink="http://www.w3.org/1999/xlink" x="0px" y="0px" viewBox="0 0 232.44 218.27" style="enable-background:new 0 0 232.44 218.27;" xml:space="preserve">

<linearGradient id="SVGID_1_" gradientUnits="userSpaceOnUse" x1="0.9" y1="31.805" x2="230.6826" y2="31.805" gradientTransform="matrix(1 0 0 -1 0 141)">
&#x9;<stop offset="0" style="stop-color:#1A2E3C"></stop>
&#x9;<stop offset="0.3956" style="stop-color:#025578"></stop>
&#x9;<stop offset="0.7991" style="stop-color:#80CCDB"></stop>
</linearGradient>
<path class="st0" d="M230.64,18.27c0.66-9.39-6.42-16.99-15.81-16.99H32.98c-9.39,0-17.53,7.61-18.18,16.99L0.9,217.11h53.96&#xA;&#x9;l8.95-128.05C65.12,70.38,81.32,55.23,100,55.23h128.05L230.64,18.27z"></path>
<path class="st1" d="M122.57,163.15H85.61l-3.77,53.96h53.96l2.58-36.96C139.03,170.76,131.96,163.15,122.57,163.15z"></path>
<path class="st2" d="M108.26,82.21c-9.39,0-17.53,7.61-18.18,16.99l-2.58,36.96h63.94c9.39,0,16.46,7.61,15.81,16.99l-4.47,63.94&#xA;&#x9;h53.96l8.24-117.9c0.66-9.39-6.42-16.99-15.81-16.99L108.26,82.21L108.26,82.21z"></path>
</svg>