<?xml version="1.0"?>

<svg version="1.1" id="Ebene_1" xmlns="http://www.w3.org/2000/svg" xmlns:xlink="http://www.w3.org/1999/xlink" x="0px" y="0px" viewBox="0 0 264 236" style="enable-background:new 0 0 264 236;" xml:space="preserve">

<g>
&#x9;<g>
&#x9;&#x9;<g>
&#x9;&#x9;&#x9;<path class="st0" d="M156.12,182.28h-7.62c-0.47,0-0.82,0.14-1.06,0.42c-0.24,0.28-0.37,0.63-0.41,1.06l-1.61,18.35h-23.5&#xA;&#x9;&#x9;&#x9;&#x9;l1.61-18.42c0.05-0.56-0.07-0.94-0.36-1.13s-0.58-0.28-0.86-0.28h-7.62c-0.47,0-0.82,0.14-1.06,0.42s-0.37,0.63-0.41,1.06&#xA;&#x9;&#x9;&#x9;&#x9;l-4.33,49.48c-0.08,0.94,0.32,1.41,1.22,1.41h7.41c1.03,0,1.59-0.47,1.68-1.41l1.85-21.17h23.5l-1.85,21.17&#xA;&#x9;&#x9;&#x9;&#x9;c-0.08,0.94,0.32,1.41,1.22,1.41h7.41c0.99,0,1.52-0.47,1.61-1.41l4.33-49.55c0.05-0.56-0.06-0.94-0.32-1.13&#xA;&#x9;&#x9;&#x9;&#x9;C156.68,182.37,156.41,182.28,156.12,182.28z"></path>
&#x9;&#x9;&#x9;<path class="st0" d="M214.21,182.28h-7.62c-0.94,0-1.46,0.49-1.54,1.48l-0.33,3.79c-1.82-1.58-3.89-2.89-6.22-3.93&#xA;&#x9;&#x9;&#x9;&#x9;c-3.17-1.41-6.61-2.12-10.33-2.12s-7.27,0.71-10.67,2.12c-3.39,1.41-6.41,3.33-9.04,5.75c-2.64,2.42-4.79,5.27-6.46,8.54&#xA;&#x9;&#x9;&#x9;&#x9;c-1.67,3.27-2.68,6.79-3,10.55c-0.33,3.72,0.06,7.21,1.16,10.48c1.1,3.27,2.76,6.12,4.97,8.54s4.89,4.34,8.04,5.75&#xA;&#x9;&#x9;&#x9;&#x9;s6.58,2.12,10.3,2.12s7.28-0.71,10.7-2.12c2.51-1.04,4.81-2.35,6.91-3.93l-0.34,3.93c-0.08,0.94,0.35,1.41,1.29,1.41h7.62&#xA;&#x9;&#x9;&#x9;&#x9;c0.89,0,1.38-0.47,1.47-1.41l4.33-49.48C215.51,182.77,215.1,182.28,214.21,182.28z M196.64,220.5&#xA;&#x9;&#x9;&#x9;&#x9;c-1.62,1.53-3.48,2.74-5.58,3.63s-4.35,1.34-6.75,1.34c-2.35,0-4.5-0.45-6.45-1.34s-3.59-2.11-4.94-3.63&#xA;&#x9;&#x9;&#x9;&#x9;c-1.35-1.53-2.34-3.33-2.99-5.4c-0.64-2.07-0.86-4.28-0.65-6.63c0.21-2.4,0.82-4.63,1.82-6.7c1-2.07,2.32-3.87,3.93-5.4&#xA;&#x9;&#x9;&#x9;&#x9;c1.62-1.53,3.47-2.74,5.58-3.63c2.1-0.89,4.33-1.34,6.68-1.34c2.4,0,4.57,0.45,6.52,1.34c1.94,0.89,3.59,2.11,4.94,3.63&#xA;&#x9;&#x9;&#x9;&#x9;c1.35,1.53,2.36,3.33,3.02,5.4c0.67,2.07,0.89,4.3,0.68,6.7c-0.21,2.35-0.82,4.56-1.85,6.63&#xA;&#x9;&#x9;&#x9;&#x9;C199.58,217.17,198.26,218.97,196.64,220.5z"></path>
&#x9;&#x9;&#x9;<path class="st0" d="M263.18,182.81c-0.04-0.35-0.32-0.53-0.84-0.53h-9.1c-0.38,0-0.73,0.05-1.07,0.14&#xA;&#x9;&#x9;&#x9;&#x9;c-0.34,0.1-0.74,0.38-1.2,0.85l-21.5,22.23l1.91-21.81c0.04-0.47-0.1-0.82-0.44-1.06c-0.33-0.23-0.64-0.35-0.92-0.35h-7.48&#xA;&#x9;&#x9;&#x9;&#x9;c-0.89,0-1.38,0.47-1.47,1.41l-4.33,49.55c-0.08,0.94,0.32,1.41,1.22,1.41h7.62c0.89,0,1.38-0.47,1.47-1.41l1.23-14.05l6.95-6.85&#xA;&#x9;&#x9;&#x9;&#x9;l14.11,21.03c0.25,0.38,0.51,0.68,0.77,0.92c0.26,0.24,0.6,0.35,1.03,0.35h10.23c0.52,0,0.85-0.16,1-0.49s0.07-0.71-0.22-1.13&#xA;&#x9;&#x9;&#x9;&#x9;l-19.31-28.51l19.94-20.61C263.08,183.53,263.22,183.16,263.18,182.81z"></path>
&#x9;&#x9;</g>
&#x9;&#x9;<g>
&#x9;&#x9;&#x9;<path class="st0" d="M30.49,182.43h-6.63c-1.18,0-1.82,0.61-1.93,1.84l-3.2,36.63c-0.12,1.32-0.7,2.45-1.74,3.39&#xA;&#x9;&#x9;&#x9;&#x9;c-1.05,0.94-2.25,1.41-3.62,1.41c-1.6,0-2.77-0.32-3.52-0.95c-0.74-0.64-1.36-1.14-1.84-1.52c-0.22-0.19-0.48-0.28-0.79-0.28&#xA;&#x9;&#x9;&#x9;&#x9;s-0.74,0.26-1.3,0.78l-4.57,4.59c-0.21,0.24-0.37,0.51-0.49,0.81c-0.12,0.31-0.01,0.65,0.33,1.02c1.49,1.74,3.24,3.08,5.22,4.02&#xA;&#x9;&#x9;&#x9;&#x9;c1.99,0.94,4.13,1.41,6.44,1.41c1.84,0,3.67-0.33,5.52-0.99s3.53-1.66,5.06-3c1.53-1.34,2.83-3.03,3.9-5.08s1.73-4.43,1.97-7.16&#xA;&#x9;&#x9;&#x9;&#x9;l3.05-34.87C32.48,183.11,31.86,182.43,30.49,182.43z"></path>
&#x9;&#x9;&#x9;<path class="st0" d="M87.92,198.06c-1.13-3.27-2.81-6.12-5.04-8.54c-2.24-2.42-4.94-4.34-8.11-5.75s-6.61-2.12-10.33-2.12&#xA;&#x9;&#x9;&#x9;&#x9;s-7.27,0.71-10.67,2.12c-3.39,1.41-6.41,3.33-9.04,5.75c-2.64,2.42-4.79,5.27-6.46,8.54c-1.67,3.27-2.68,6.79-3,10.55&#xA;&#x9;&#x9;&#x9;&#x9;c-0.33,3.72,0.06,7.21,1.16,10.48c1.1,3.27,2.76,6.12,4.97,8.54c2.21,2.42,4.89,4.34,8.04,5.75s6.58,2.12,10.3,2.12&#xA;&#x9;&#x9;&#x9;&#x9;s7.28-0.71,10.7-2.12c3.42-1.41,6.45-3.33,9.11-5.75s4.84-5.27,6.54-8.54c1.7-3.27,2.71-6.76,3.03-10.48&#xA;&#x9;&#x9;&#x9;&#x9;C89.44,204.85,89.04,201.33,87.92,198.06z M78.74,208.61c-0.21,2.35-0.82,4.56-1.85,6.63s-2.35,3.87-3.97,5.4&#xA;&#x9;&#x9;&#x9;&#x9;s-3.48,2.74-5.58,3.63s-4.35,1.34-6.75,1.34c-2.35,0-4.5-0.45-6.45-1.34s-3.59-2.11-4.94-3.63c-1.35-1.53-2.34-3.33-2.99-5.4&#xA;&#x9;&#x9;&#x9;&#x9;c-0.64-2.07-0.86-4.28-0.65-6.63c0.21-2.4,0.82-4.63,1.82-6.7c1-2.07,2.32-3.87,3.93-5.4c1.62-1.53,3.47-2.74,5.58-3.63&#xA;&#x9;&#x9;&#x9;&#x9;c2.1-0.89,4.33-1.34,6.68-1.34c2.4,0,4.57,0.45,6.52,1.34c1.94,0.89,3.59,2.11,4.94,3.63c1.35,1.53,2.36,3.33,3.02,5.4&#xA;&#x9;&#x9;&#x9;&#x9;C78.72,203.98,78.95,206.21,78.74,208.61z"></path>
&#x9;&#x9;</g>
&#x9;&#x9;<path class="st1" d="M98.96,221.8h-9.08l-0.93,13.26h13.26l0.64-9.08C103.01,223.67,101.27,221.8,98.96,221.8z"></path>
&#x9;</g>
&#x9;<g>
&#x9;&#x9;
&#x9;&#x9;&#x9;<linearGradient id="SVGID_1_" gradientUnits="userSpaceOnUse" x1="21.07" y1="104.25" x2="175.0483" y2="104.25" gradientTransform="matrix(1 0 0 -1 0 177)">
&#x9;&#x9;&#x9;<stop offset="0" style="stop-color:#1A2E3C"></stop>
&#x9;&#x9;&#x9;<stop offset="0.3991" style="stop-color:#005577"></stop>
&#x9;&#x9;&#x9;<stop offset="0.7991" style="stop-color:#80CCDB"></stop>
&#x9;&#x9;</linearGradient>
&#x9;&#x9;<path class="st2" d="M175.02,11.82c0.44-6.29-4.3-11.39-10.59-11.39H42.57c-6.29,0-11.75,5.1-12.18,11.39l-9.32,133.25h36.16&#xA;&#x9;&#x9;&#x9;l6-85.81c0.88-12.52,11.73-22.67,24.25-22.67h85.81L175.02,11.82z"></path>
&#x9;&#x9;<path class="st1" d="M102.6,108.9H77.83l-2.53,36.16h36.16l1.73-24.77C113.63,114,108.89,108.9,102.6,108.9z"></path>
&#x9;&#x9;<path class="st3" d="M93.01,54.66c-6.29,0-11.75,5.1-12.18,11.39L79.1,90.82h42.85c6.29,0,11.03,5.1,10.59,11.39l-3,42.85h36.16&#xA;&#x9;&#x9;&#x9;l5.52-79.01c0.44-6.29-4.3-11.39-10.59-11.39C160.63,54.66,93.01,54.66,93.01,54.66z"></path>
&#x9;</g>
</g>
</svg>